<svg width="60" height="18" viewBox="0 0 60 18" fill="none" xmlns="http://www.w3.org/2000/svg">
<g id="xendit_white_logo copy">
<mask id="mask0" mask-type="alpha" maskUnits="userSpaceOnUse" x="0" y="0" width="60" height="18">
<rect id="Rectangle 14" width="60" height="18" fill="#C4C4C4"/>
</mask>
<g mask="url(#mask0)">
<g id="xendit_icon_blue_red">
<mask id="mask1" mask-type="alpha" maskUnits="userSpaceOnUse" x="0" y="0" width="19" height="18">
<rect id="Mask" width="18.4282" height="18" fill="white"/>
</mask>
<g mask="url(#mask1)">
<g id="xendit_icon_blue_red_2">
<path id="Fill-1_1_" d="M10.7805 13.3174L12.4743 16.1788L13.2927 15.6838L13.58 14.7362L11.7615 11.6603L10.7805 13.3174Z" fill="#D24D57"/>
<path id="Fill-2_1_" d="M5.29799 1.98538L4.49854 2.66303L6.64488 6.28685L7.6232 4.63244L5.66385 1.32097L5.29799 1.98538Z" fill="#D24D57"/>
<path id="Fill-3_1_" d="M7.14093 10.8423L4.7561 14.8738L5.05421 15.9459L5.78592 16.4515L9.22495 10.6359L10.206 8.97617L14.0109 2.53323L13.3794 1.67558L13.1653 1.37646L12.2385 2.21558L7.14093 10.8423Z" fill="#D24D57"/>
<path id="Fill-4_1_" d="M5.22213 0.569153L4.2411 2.23151H4.24381L1.23567 7.32974L1.23296 7.32709L0.254639 8.9868L5.22213 17.4044L6.20316 15.7474L2.21399 8.98945L6.20316 2.23151H9.05682L10.0379 0.569153H5.22213Z" fill="#4573FF"/>
<path id="Fill-5_1_" d="M12.2275 2.23415L16.2139 8.98945L12.2275 15.7447H9.37383L8.39551 17.4044H13.2085L14.1896 15.7447L17.195 10.6492L18.176 8.99209L17.1977 7.3218L14.1868 2.23151L13.2112 0.569153L12.2275 2.23415Z" fill="#4573FF"/>
</g>
</g>
</g>
<g id="xendit_logotype">
<path id="Fill 1" fill-rule="evenodd" clip-rule="evenodd" d="M26.5996 5.97093L24.7822 8.55987L22.9582 5.97093H21.5068L24.0407 9.44637L21.3767 13.0867H22.822L24.7819 10.3446L26.7229 13.0867H28.1682L25.5044 9.44637L28.0383 5.97093H26.5996Z" fill="#4573FF"/>
<path id="Fill 2" fill-rule="evenodd" clip-rule="evenodd" d="M32.1031 6.904C32.6335 6.904 33.0457 7.07104 33.3282 7.40026C33.6012 7.71832 33.7462 8.18038 33.7593 8.77438H30.2424C30.3112 8.20216 30.5012 7.74658 30.8075 7.4188C31.1268 7.07734 31.5626 6.904 32.1031 6.904ZM32.1161 5.84425C31.1418 5.84425 30.354 6.18733 29.7748 6.86359C29.1994 7.53553 28.9077 8.45119 28.9077 9.58555C28.9077 10.7138 29.2225 11.6098 29.8433 12.2483C30.4653 12.8886 31.3238 13.2131 32.3947 13.2131C32.8783 13.2131 33.2975 13.1773 33.6414 13.1067C33.9849 13.0362 34.3536 12.9183 34.7377 12.7564L34.7933 12.733V11.6008L34.6649 11.6545C33.9325 11.9605 33.182 12.1155 32.4336 12.1155C31.7381 12.1155 31.193 11.9122 30.8136 11.5116C30.4467 11.124 30.2436 10.5514 30.2097 9.80857H35.0978V9.05401C35.0978 8.09929 34.8283 7.31809 34.2972 6.73219C33.763 6.14287 33.0292 5.84425 32.1161 5.84425Z" fill="#4573FF"/>
<path id="Fill 5" fill-rule="evenodd" clip-rule="evenodd" d="M40.1949 5.8443C39.6952 5.8443 39.2348 5.94204 38.8266 6.13482C38.4654 6.30564 38.1713 6.5409 37.95 6.8361L37.7906 5.97084H36.7468V13.0864H38.0066V9.3579C38.0066 8.48112 38.1735 7.84734 38.5025 7.47384C38.8281 7.10412 39.354 6.91656 40.0654 6.91656C40.5976 6.91656 40.991 7.04742 41.2352 7.30518C41.481 7.56546 41.6058 7.97064 41.6058 8.50992V13.0864H42.8655V8.47194C42.8655 7.56474 42.638 6.89226 42.1892 6.47358C41.7416 6.05598 41.0706 5.8443 40.1949 5.8443Z" fill="#4573FF"/>
<path id="Fill 7" fill-rule="evenodd" clip-rule="evenodd" d="M47.6649 12.1535C47.047 12.1535 46.5925 11.9443 46.2754 11.5138C45.956 11.0801 45.794 10.4231 45.794 9.56039C45.794 8.70953 45.9575 8.04425 46.28 7.58291C46.5993 7.12589 47.0481 6.90395 47.652 6.90395C48.3528 6.90395 48.8678 7.10411 49.1826 7.49903C49.5029 7.90061 49.6652 8.58983 49.6652 9.54761V9.76919C49.6652 10.6127 49.5056 11.2288 49.1909 11.6009C48.8804 11.9675 48.367 12.1535 47.6649 12.1535ZM49.6654 5.97717L49.6916 6.46749L49.7201 6.78249C49.1949 6.15969 48.4585 5.84433 47.5288 5.84433C46.5794 5.84433 45.8272 6.17499 45.2929 6.82731C44.7637 7.47351 44.4954 8.38881 44.4954 9.54765C44.4954 10.7068 44.7628 11.616 45.2902 12.2496C45.8222 12.889 46.5754 13.2132 47.5288 13.2132C48.4904 13.2132 49.2362 12.8832 49.748 12.2322L49.879 13.0866H50.925V3.05991H49.6652L49.6654 5.97717Z" fill="#4573FF"/>
<path id="Fill 10" fill-rule="evenodd" clip-rule="evenodd" d="M53.6577 3.39534C53.4527 3.39534 53.2788 3.45996 53.1407 3.58758C53.0012 3.71664 52.9307 3.91644 52.9307 4.1814C52.9307 4.4415 53.0009 4.64112 53.1395 4.77396C53.2777 4.90662 53.452 4.97394 53.6577 4.97394C53.8539 4.97394 54.0257 4.90698 54.1681 4.77522C54.3119 4.64202 54.3847 4.44222 54.3847 4.1814C54.3847 3.92022 54.3117 3.7215 54.1676 3.59028C54.0251 3.46086 53.8535 3.39534 53.6577 3.39534Z" fill="#4573FF"/>
<path id="Fill 12" fill-rule="evenodd" clip-rule="evenodd" d="M53.0212 13.0866H54.281V5.97099H53.0212V13.0866Z" fill="#4573FF"/>
<path id="Fill 14" fill-rule="evenodd" clip-rule="evenodd" d="M59.7089 12.0431C59.6094 12.0715 59.4716 12.0993 59.2993 12.1261C59.1277 12.1525 58.9473 12.1662 58.763 12.1662C58.4333 12.1662 58.1825 12.0663 57.9962 11.8609C57.8095 11.6556 57.7148 11.3519 57.7148 10.959V6.96729H59.7751V5.97099H57.7148V4.36359H56.9321L56.4713 5.86875L55.438 6.31227V6.96729H56.455V11.0032C56.455 12.4695 57.1793 13.2131 58.6075 13.2131C58.7917 13.2131 59.0027 13.1946 59.2344 13.158C59.4721 13.1206 59.6488 13.0736 59.7747 13.0144L59.8269 12.9899V12.0094L59.7089 12.0431Z" fill="#4573FF"/>
</g>
</g>
</g>
</svg>
